# xmcd CD database file
#
# Track frame offsets:
#	150
#	22831
#	43712
#	72683
#	91796
#	107757
#	130161
#	152941
#	182008
#	208753
#	236051
#	257882
#	275616
#
# Disc length: 3984 seconds
#
# Revision: 0
# Processed by: cddbd v1.5.1PL0 Copyright (c) Steve Scherf et al.
# Submitted via: CDex 1.51
#
DISCID=bb0f8e0d
DTITLE=George Butts - Breakin' Out the Past
DYEAR=1999
DGENRE=Jazz
TTITLE0=Riverside Hotel
TTITLE1=You Don't Know Me
TTITLE2=Danny Boy
TTITLE3=Through the Eyes of Love
TTITLE4=September
TTITLE5=Misty
TTITLE6=Close the Door
TTITLE7=The Shadow of Your Smile
TTITLE8=Through the Fire
TTITLE9=Who Knows
TTITLE10=Summertime
TTITLE11=All of Me
TTITLE12=Ribbon in the Sky
EXTD=YEAR: 1999
EXTT0=
EXTT1=
EXTT2=
EXTT3=
EXTT4=
EXTT5=
EXTT6=
EXTT7=
EXTT8=
EXTT9=
EXTT10=
EXTT11=
EXTT12=
PLAYORDER=
